<svg xmlns="http://www.w3.org/2000/svg" viewBox="0 0 995.31 871.06"><title>android-3</title><path d="M77.9,817.94c-25.71,0-43,20.19-43,46.14s17.3,46.14,43,46.14,43-20.19,43-46.14c-.24-26-17.54-46.14-43-46.14m-5.77-28.59c20.67,0,38,10.57,46.14,22.1V792.23H150V936.17H125.48a7.23,7.23,0,0,1-7.21-7.21v-12C110.1,928.48,93,939.05,72.13,939.05c-39.4,0-69.44-33.64-69.44-74.73s29.8-75,69.44-75M186,792.23h31.71v19.46c8.66-14.41,25-22.34,43.74-22.34,33.4,0,55,23.55,55,60.07v86.75H292.25A7.23,7.23,0,0,1,285,929V854.71c0-22.83-11.54-36.53-30-36.53-20.91,0-37.25,16.34-37.25,47.1v70.89H193.48a7.22,7.22,0,0,1-7.2-7.21Zm230.44,25.71c-25.71,0-43,20.19-43,46.14s17.3,46.14,43,46.14,43-20.19,43-46.14-17.3-46.14-43-46.14m-5.77-28.59c20.67,0,38,10.57,46.14,22.1V720.14h31.72v216H464.3a7.23,7.23,0,0,1-7.21-7.21V917c-8.17,11.53-25.23,22.1-46.14,22.1-39.41,0-69.44-33.64-69.44-74.73s29.79-75,69.2-75m113.9,2.88h31.72v25.71a40.76,40.76,0,0,1,38-27.15,53.19,53.19,0,0,1,12.26,1.2v32.44a51.25,51.25,0,0,0-15.86-2.64c-18,0-34.61,15.38-34.61,44v70.17H531.82a7.24,7.24,0,0,1-7.21-7.21ZM691.86,909.5c25.23,0,43.25-20,43.25-45.42,0-25.71-17.78-45.42-43.25-45.42-25.71,0-43.49,20-43.49,45.42.24,25.71,17.78,45.42,43.49,45.42m0,29.55a74.21,74.21,0,1,1,1.46,0h-1.46M793,792.23h31.72V936.17H800.48a7.23,7.23,0,0,1-7.21-7.21Zm15.86-31.48a21.59,21.59,0,0,1-21.39-21.38,21.27,21.27,0,1,1,21.39,21.38m117,57.19c-25.71,0-43,20.19-43,46.14s17.3,46.14,43,46.14,43-20.19,43-46.14c-.48-26-17.3-46.14-43-46.14m-5.77-28.59c20.67,0,38,10.57,46.14,22.1V720.14H998v216H973.73a7.23,7.23,0,0,1-7.21-7.21v-12c-8.17,11.54-25.23,22.11-46.14,22.11-39.4,0-69.44-33.64-69.44-74.73s29.79-75,69.2-75" transform="translate(-2.69 -68)"/><path d="M744.25,237.14l82.9-143.45a17.23,17.23,0,0,0-29.8-17.3L713.49,221.52a519.28,519.28,0,0,0-425.81,0L203.82,76.39A17.23,17.23,0,0,0,174,93.69l82.9,143.45C114,314.52,16.87,458.46,2.69,628.35H997.52C983.34,458.46,886,314.52,744.25,237.14ZM271.34,486.57a41.33,41.33,0,1,1,41.33-41.33h0A41.32,41.32,0,0,1,271.34,486.57Zm458,0a41.33,41.33,0,1,1,41.33-41.33,41.32,41.32,0,0,1-41.33,41.33Z" transform="translate(-2.69 -68)" fill="#3ddc84"/></svg>